HIERARCHY
ROOT Hips
{
	OFFSET 0.053599 88.859886 3.107447
	CHANNELS 6 Xposition Yposition Zposition Zrotation Yrotation Xrotation 
	JOINT Spine
	{
		OFFSET -0.000000 8.814246 -2.080107
		CHANNELS 3 Zrotation Yrotation Xrotation
		JOINT Spine1
		{
			OFFSET 0.000000 8.844141 0.000000
			CHANNELS 3 Zrotation Yrotation Xrotation
			JOINT Spine2
			{
				OFFSET -0.000000 11.682268 0.000000
				CHANNELS 3 Zrotation Yrotation Xrotation
				JOINT Spine3
				{
					OFFSET 0.000000 11.746700 0.000000
					CHANNELS 3 Zrotation Yrotation Xrotation
					JOINT Neck
					{
						OFFSET -0.000000 17.658264 -0.000000
						CHANNELS 3 Zrotation Yrotation Xrotation
						JOINT Neck1
						{
							OFFSET -0.000000 5.101515 -0.000000
							CHANNELS 3 Zrotation Yrotation Xrotation
							JOINT Head
							{
								OFFSET 0.000000 5.101515 0.000000
								CHANNELS 3 Zrotation Yrotation Xrotation
								JOINT HeadEnd
								{
									OFFSET 0.000000 11.655085 0.000000
									CHANNELS 3 Zrotation Yrotation Xrotation
									End Site
									{
										OFFSET 0.000000 0.000000 0.000000
									}
								}
							}
						}
					}
					JOINT RightShoulder
					{
						OFFSET -2.625389 11.175210 0.000000
						CHANNELS 3 Zrotation Yrotation Xrotation
						JOINT RightArm
						{
							OFFSET -0.000000 10.434715 -0.000000
							CHANNELS 3 Zrotation Yrotation Xrotation
							JOINT RightForeArm
							{
								OFFSET -0.000000 29.628420 0.000000
								CHANNELS 3 Zrotation Yrotation Xrotation
								JOINT RightHand
								{
									OFFSET -0.000000 22.857611 0.000000
									CHANNELS 3 Zrotation Yrotation Xrotation
									JOINT RightHandThumb1
									{
										OFFSET -2.867323 3.959563 2.944291
										CHANNELS 3 Zrotation Yrotation Xrotation
										JOINT RightHandThumb2
										{
											OFFSET 0.000000 3.350399 0.000000
											CHANNELS 3 Zrotation Yrotation Xrotation
											JOINT RightHandThumb3
											{
												OFFSET 0.000000 3.756509 -0.000000
												CHANNELS 3 Zrotation Yrotation Xrotation
												JOINT RightHandThumb4
												{
													OFFSET 0.000000 3.147345 0.000000
													CHANNELS 3 Zrotation Yrotation Xrotation
													End Site
													{
														OFFSET 0.000000 0.000000 0.000000
													}
												}
											}
										}
									}
									JOINT RightHandIndex1
									{
										OFFSET -0.086752 10.030893 2.345280
										CHANNELS 3 Zrotation Yrotation Xrotation
										JOINT RightHandIndex2
										{
											OFFSET -0.000000 4.061090 0.000000
											CHANNELS 3 Zrotation Yrotation Xrotation
											JOINT RightHandIndex3
											{
												OFFSET -0.000000 3.248873 0.000000
												CHANNELS 3 Zrotation Yrotation Xrotation
												JOINT RightHandIndex4
												{
													OFFSET 0.000000 2.639709 -0.000000
													CHANNELS 3 Zrotation Yrotation Xrotation
													End Site
													{
														OFFSET 0.000000 0.000000 0.000000
													}
												}
											}
										}
									}
									JOINT RightHandMiddle1
									{
										OFFSET 0.104102 9.502952 0.006768
										CHANNELS 3 Zrotation Yrotation Xrotation
										JOINT RightHandMiddle2
										{
											OFFSET 0.000000 4.568727 0.000000
											CHANNELS 3 Zrotation Yrotation Xrotation
											JOINT RightHandMiddle3
											{
												OFFSET 0.000000 3.654981 -0.000000
												CHANNELS 3 Zrotation Yrotation Xrotation
												JOINT RightHandMiddle4
												{
													OFFSET -0.000000 2.741236 -0.000000
													CHANNELS 3 Zrotation Yrotation Xrotation
													End Site
													{
														OFFSET 0.000000 0.000000 0.000000
													}
												}
											}
										}
									}
									JOINT RightHandRing1
									{
										OFFSET 0.086752 8.921708 -2.267442
										CHANNELS 3 Zrotation Yrotation Xrotation
										JOINT RightHandRing2
										{
											OFFSET -0.000000 4.061090 0.000000
											CHANNELS 3 Zrotation Yrotation Xrotation
											JOINT RightHandRing3
											{
												OFFSET 0.000000 3.654981 -0.000000
												CHANNELS 3 Zrotation Yrotation Xrotation
												JOINT RightHandRing4
												{
													OFFSET 0.000000 2.741236 -0.000000
													CHANNELS 3 Zrotation Yrotation Xrotation
													End Site
													{
														OFFSET 0.000000 0.000000 0.000000
													}
												}
											}
										}
									}
									JOINT RightHandPinky1
									{
										OFFSET -0.173504 7.976997 -4.467199
										CHANNELS 3 Zrotation Yrotation Xrotation
										JOINT RightHandPinky2
										{
											OFFSET 0.000000 3.350399 -0.000000
											CHANNELS 3 Zrotation Yrotation Xrotation
											JOINT RightHandPinky3
											{
												OFFSET -0.000000 2.842763 0.000000
												CHANNELS 3 Zrotation Yrotation Xrotation
												JOINT RightHandPinky4
												{
													OFFSET -0.000000 2.639709 0.000000
													CHANNELS 3 Zrotation Yrotation Xrotation
													End Site
													{
														OFFSET 0.000000 0.000000 0.000000
													}
												}
											}
										}
									}
									JOINT RightForeArmEnd
									{
										OFFSET 0.000000 0.000000 0.000000
										CHANNELS 3 Zrotation Yrotation Xrotation
										End Site
										{
											OFFSET 0.000000 0.000000 0.000000
										}
									}
								}
								JOINT RightArmEnd
								{
									OFFSET 0.000000 0.000000 0.000000
									CHANNELS 3 Zrotation Yrotation Xrotation
									End Site
									{
										OFFSET 0.000000 0.000000 0.000000
									}
								}
							}
						}
					}
					JOINT LeftShoulder
					{
						OFFSET 2.625389 11.175210 0.000000
						CHANNELS 3 Zrotation Yrotation Xrotation
						JOINT LeftArm
						{
							OFFSET 0.000000 10.813635 -0.000000
							CHANNELS 3 Zrotation Yrotation Xrotation
							JOINT LeftForeArm
							{
								OFFSET 0.000000 28.724781 0.000000
								CHANNELS 3 Zrotation Yrotation Xrotation
								JOINT LeftHand
								{
									OFFSET 0.644384 25.716167 -0.328871
									CHANNELS 3 Zrotation Yrotation Xrotation
									JOINT LeftHandThumb1
									{
										OFFSET 2.867323 3.959563 2.944291
										CHANNELS 3 Zrotation Yrotation Xrotation
										JOINT LeftHandThumb2
										{
											OFFSET 0.000000 3.350399 0.000000
											CHANNELS 3 Zrotation Yrotation Xrotation
											JOINT LeftHandThumb3
											{
												OFFSET -0.000000 3.756509 0.000000
												CHANNELS 3 Zrotation Yrotation Xrotation
												JOINT LeftHandThumb4
												{
													OFFSET -0.000000 3.100000 0.000000
													CHANNELS 3 Zrotation Yrotation Xrotation
													End Site
													{
														OFFSET 0.000000 0.000000 0.000000
													}
												}
											}
										}
									}
									JOINT LeftHandIndex1
									{
										OFFSET 0.086752 10.030893 2.345280
										CHANNELS 3 Zrotation Yrotation Xrotation
										JOINT LeftHandIndex2
										{
											OFFSET -0.000000 4.061090 -0.000000
											CHANNELS 3 Zrotation Yrotation Xrotation
											JOINT LeftHandIndex3
											{
												OFFSET 0.000000 3.248873 -0.000000
												CHANNELS 3 Zrotation Yrotation Xrotation
												JOINT LeftHandIndex4
												{
													OFFSET 0.000000 2.639709 -0.000000
													CHANNELS 3 Zrotation Yrotation Xrotation
													End Site
													{
														OFFSET 0.000000 0.000000 0.000000
													}
												}
											}
										}
									}
									JOINT LeftHandMiddle1
									{
										OFFSET -0.104102 9.502952 0.006768
										CHANNELS 3 Zrotation Yrotation Xrotation
										JOINT LeftHandMiddle2
										{
											OFFSET -0.000000 4.568727 -0.000000
											CHANNELS 3 Zrotation Yrotation Xrotation
											JOINT LeftHandMiddle3
											{
												OFFSET 0.000000 3.654981 0.000000
												CHANNELS 3 Zrotation Yrotation Xrotation
												JOINT LeftHandMiddle4
												{
													OFFSET 0.000000 2.741236 -0.000000
													CHANNELS 3 Zrotation Yrotation Xrotation
													End Site
													{
														OFFSET 0.000000 0.000000 0.000000
													}
												}
											}
										}
									}
									JOINT LeftHandRing1
									{
										OFFSET -0.086752 8.921708 -2.267442
										CHANNELS 3 Zrotation Yrotation Xrotation
										JOINT LeftHandRing2
										{
											OFFSET 0.000000 4.061090 0.000000
											CHANNELS 3 Zrotation Yrotation Xrotation
											JOINT LeftHandRing3
											{
												OFFSET 0.000000 3.654981 0.000000
												CHANNELS 3 Zrotation Yrotation Xrotation
												JOINT LeftHandRing4
												{
													OFFSET 0.000000 2.741236 0.000000
													CHANNELS 3 Zrotation Yrotation Xrotation
													End Site
													{
														OFFSET 0.000000 0.000000 0.000000
													}
												}
											}
										}
									}
									JOINT LeftHandPinky1
									{
										OFFSET 0.173504 7.976997 -4.467199
										CHANNELS 3 Zrotation Yrotation Xrotation
										JOINT LeftHandPinky2
										{
											OFFSET -0.000000 3.350399 -0.000000
											CHANNELS 3 Zrotation Yrotation Xrotation
											JOINT LeftHandPinky3
											{
												OFFSET 0.000000 2.842763 0.000000
												CHANNELS 3 Zrotation Yrotation Xrotation
												JOINT LeftHandPinky4
												{
													OFFSET -0.000000 2.639709 -0.000000
													CHANNELS 3 Zrotation Yrotation Xrotation
													End Site
													{
														OFFSET 0.000000 0.000000 0.000000
													}
												}
											}
										}
									}
									JOINT LeftForeArmEnd
									{
										OFFSET 0.000000 0.000000 0.000000
										CHANNELS 3 Zrotation Yrotation Xrotation
										End Site
										{
											OFFSET 0.000000 0.000000 0.000000
										}
									}
								}
								JOINT LeftArmEnd
								{
									OFFSET 0.000000 0.000000 0.000000
									CHANNELS 3 Zrotation Yrotation Xrotation
									End Site
									{
										OFFSET 0.000000 0.000000 0.000000
									}
								}
							}
						}
					}
				}
			}
		}
	}
	JOINT RightUpLeg
	{
		OFFSET -11.289943 0.000000 0.000000
		CHANNELS 3 Zrotation Yrotation Xrotation
		JOINT RightLeg
		{
			OFFSET 0.000000 -38.200325 0.000000
			CHANNELS 3 Zrotation Yrotation Xrotation
			JOINT RightFoot
			{
				OFFSET -0.000000 -39.900856 -0.000000
				CHANNELS 3 Zrotation Yrotation Xrotation
				JOINT RightToeBase
				{
					OFFSET 0.000000 0.000000 15.261641
					CHANNELS 3 Zrotation Yrotation Xrotation
					JOINT RightToeBaseEnd
					{
						OFFSET 0.000000 0.000000 7.370709
						CHANNELS 3 Zrotation Yrotation Xrotation
						End Site
						{
							OFFSET 0.000000 0.000000 0.000000
						}
					}
				}
				JOINT RightLegEnd
				{
					OFFSET 0.000000 0.000000 0.000000
					CHANNELS 3 Zrotation Yrotation Xrotation
					End Site
					{
						OFFSET 0.000000 0.000000 0.000000
					}
				}
			}
			JOINT RightUpLegEnd
			{
				OFFSET 0.000000 0.000000 0.000000
				CHANNELS 3 Zrotation Yrotation Xrotation
				End Site
				{
					OFFSET 0.000000 0.000000 0.000000
				}
			}
		}
	}
	JOINT LeftUpLeg
	{
		OFFSET 11.315661 -0.000000 0.000000
		CHANNELS 3 Zrotation Yrotation Xrotation
		JOINT LeftLeg
		{
			OFFSET -0.000000 -38.200325 -0.000000
			CHANNELS 3 Zrotation Yrotation Xrotation
			JOINT LeftFoot
			{
				OFFSET 0.000000 -39.900856 -0.000000
				CHANNELS 3 Zrotation Yrotation Xrotation
				JOINT LeftToeBase
				{
					OFFSET -0.000000 -0.000000 15.261641
					CHANNELS 3 Zrotation Yrotation Xrotation
					JOINT LeftToeBaseEnd
					{
						OFFSET 0.000000 -0.000000 7.539996
						CHANNELS 3 Zrotation Yrotation Xrotation
						End Site
						{
							OFFSET 0.000000 0.000000 0.000000
						}
					}
				}
				JOINT LeftLegEnd
				{
					OFFSET 0.000000 0.000000 0.000000
					CHANNELS 3 Zrotation Yrotation Xrotation
					End Site
					{
						OFFSET 0.000000 0.000000 0.000000
					}
				}
			}
			JOINT LeftUpLegEnd
			{
				OFFSET 0.000000 0.000000 0.000000
				CHANNELS 3 Zrotation Yrotation Xrotation
				End Site
				{
					OFFSET 0.000000 0.000000 0.000000
				}
			}
		}
	}
}
MOTION
Frames: 5
Frame Time: 0.016667
0.053599 88.859886 3.107447 0.490481 0.055862 -6.497332 0.023754 -0.000539 5.886370 -1.012250 0.067046 0.861970 0.478071 -2.416792 3.829567 0.155030 -0.780500 1.929224 2.330515 0.848112 5.016849 0.371683 2.117863 -3.221864 -0.714533 -0.852149 -18.222401 0.000000 0.000000 0.000000 92.418694 -0.394880 9.707912 65.456573 -33.431271 5.091406 -0.130291 12.440493 22.353239 6.882370 13.743960 -6.458578 19.861429 30.097643 62.040974 -8.462701 -12.164348 -20.450144 -6.325801 -8.139122 -14.332924 0.000000 0.000000 0.000000 12.621688 -10.712396 0.231899 8.905269 0.376633 1.323778 8.902945 -0.111869 1.243825 0.000000 0.000000 0.000000 11.194713 -5.446730 -1.239449 7.889823 0.455857 0.481039 7.889222 -0.037052 0.412494 0.000000 0.000000 0.000000 10.912717 2.564455 -1.535874 7.825817 -0.947299 -0.611652 7.824722 0.070320 -0.477096 0.000000 0.000000 0.000000 9.631022 11.185607 -2.805182 7.161172 -1.900893 -1.652070 7.157181 0.085565 -1.400512 0.000000 0.000000 0.000000 0.000000 0.000000 0.000000 0.000000 0.000000 0.000000 -90.370071 0.051974 5.208683 -71.842018 19.306828 -7.574249 -0.664994 -8.642401 40.885647 -0.139946 -25.486511 -15.477552 -20.250540 -29.996990 61.691063 8.807010 12.918287 -21.553112 6.618044 8.635277 -15.110494 0.000000 0.000000 0.000000 -16.168392 -5.636370 -1.918335 -11.569428 0.324957 -1.715407 -11.569072 -0.164917 -1.615128 0.000000 0.000000 0.000000 -15.643335 -0.758781 -1.694552 -11.169063 0.440303 -0.678956 -11.168735 -0.058746 -0.582722 0.000000 0.000000 0.000000 -18.003109 7.607869 -1.025503 -12.703986 -0.874371 0.992852 -12.702737 0.099213 0.772902 0.000000 0.000000 0.000000 -18.852142 16.262062 -0.245862 -13.102126 -1.657223 2.980032 -13.096694 0.281077 2.526406 0.000000 0.000000 0.000000 0.000000 0.000000 0.000000 0.000000 0.000000 0.000000 -1.045058 -10.518975 11.869204 -0.078405 -0.635030 3.758801 -2.197730 -7.901679 18.681496 -0.890004 0.828132 -18.870453 0.000000 0.000000 0.000000 0.000000 0.000000 0.000000 0.000000 0.000000 0.000000 -1.784023 -6.543907 7.474547 0.053202 0.398207 7.545935 3.843466 -1.785134 17.966772 0.194973 -0.390531 -20.817129 0.000000 0.000000 0.000000 0.000000 0.000000 0.000000 0.000000 0.000000 0.000000 
0.125513 88.898163 2.892746 -0.268240 -0.285083 -7.278537 1.318002 -0.189442 6.620403 -0.996082 0.125324 2.680929 0.761612 -1.605994 1.540527 -0.888711 -0.169426 3.032194 1.418080 2.310887 3.149531 0.289949 2.953409 -3.846662 -1.023979 -0.506429 -18.409273 0.000000 0.000000 0.000000 93.055252 -0.456683 9.606947 65.139030 -32.198570 3.898319 -0.141208 12.992412 23.107841 6.822850 13.375855 -6.783616 19.888885 30.092752 62.062580 -8.437477 -12.103448 -20.471504 -6.299097 -8.110722 -14.299294 0.000000 0.000000 0.000000 12.144568 -10.767753 -0.268703 9.050721 0.317603 1.372175 8.840070 -0.123962 1.303617 0.000000 0.000000 0.000000 10.940791 -5.371596 -1.080602 7.709804 0.415088 0.535600 8.084476 -0.059176 0.458167 0.000000 0.000000 0.000000 10.358658 2.571083 -0.814795 7.528364 -0.878726 -0.872768 7.556643 0.075735 -0.642115 0.000000 0.000000 0.000000 9.613337 11.054335 -1.746415 7.212507 -1.622734 -2.480434 6.794703 0.300585 -2.090218 0.000000 0.000000 0.000000 0.000000 0.000000 0.000000 0.000000 0.000000 0.000000 -89.921486 0.112425 6.050553 -71.655952 19.689432 -6.474349 -1.231137 -9.020451 40.400341 1.888706 -23.195805 -15.969758 -20.257391 -29.968420 61.602245 8.878304 12.974007 -21.708923 6.650009 8.683146 -15.183245 0.000000 0.000000 0.000000 -17.317430 -5.489868 -0.255408 -11.044004 0.278709 -1.440607 -11.153672 -0.183657 -1.329655 0.000000 0.000000 0.000000 -16.659626 -0.502274 -1.001761 -10.925535 0.402488 -0.605090 -10.839638 -0.071911 -0.487601 0.000000 0.000000 0.000000 -18.752426 7.549212 -0.776177 -12.437108 -0.861907 0.865664 -12.411047 0.091240 0.673224 0.000000 0.000000 0.000000 -19.927124 15.975210 -1.125970 -13.012799 -1.527739 2.684708 -12.863633 0.363959 2.278397 0.000000 0.000000 0.000000 0.000000 0.000000 0.000000 0.000000 0.000000 0.000000 0.127628 -9.210129 10.992783 -0.048505 -0.635740 6.200174 -2.909814 -9.069813 17.690857 -0.788580 0.734647 -19.075647 0.000000 0.000000 0.000000 0.000000 0.000000 0.000000 0.000000 0.000000 0.000000 -1.558288 -6.247509 7.103849 0.058066 0.363588 8.491022 3.798155 -0.611695 17.044031 0.390861 -0.468720 -20.532681 0.000000 0.000000 0.000000 0.000000 0.000000 0.000000 0.000000 0.000000 0.000000 
0.129475 88.882607 2.875531 -0.272391 -0.325551 -7.337425 1.309837 -0.177180 6.649622 -0.944281 0.115745 2.651249 0.756183 -1.561435 1.652752 -0.885279 -0.141266 3.037473 1.289971 2.275045 3.097364 0.267156 2.883788 -3.851460 -1.030328 -0.536291 -18.368166 0.000000 0.000000 0.000000 93.009018 -0.451421 9.591755 65.191666 -32.390587 3.900011 -0.099931 13.015637 23.054546 6.714942 13.204222 -6.779534 19.878819 30.092258 62.065182 -8.437181 -12.093058 -20.456993 -6.302843 -8.100638 -14.287522 0.000000 0.000000 0.000000 12.126455 -10.770919 -0.278621 9.048362 0.314362 1.386141 8.845222 -0.124812 1.313728 0.000000 0.000000 0.000000 10.954193 -5.371674 -1.078526 7.723651 0.411999 0.538348 8.099979 -0.060783 0.462189 0.000000 0.000000 0.000000 10.425788 2.550237 -0.815902 7.606348 -0.875339 -0.873921 7.619977 0.075730 -0.642749 0.000000 0.000000 0.000000 9.667659 11.025126 -1.723900 7.251596 -1.621570 -2.489424 6.847202 0.299986 -2.085081 0.000000 0.000000 0.000000 0.000000 0.000000 0.000000 0.000000 0.000000 0.000000 -89.888969 0.105020 6.108087 -71.733078 19.862638 -6.433162 -1.237941 -9.034684 40.427998 2.096581 -22.944601 -16.019165 -20.238220 -29.975454 61.618629 8.859764 12.938577 -21.653727 6.633058 8.653069 -15.146669 0.000000 0.000000 0.000000 -17.180897 -5.536965 -0.357292 -11.080873 0.274678 -1.455554 -11.182599 -0.184711 -1.344551 0.000000 0.000000 0.000000 -16.554892 -0.535405 -1.065577 -10.969450 0.400271 -0.612085 -10.879747 -0.073736 -0.495376 0.000000 0.000000 0.000000 -18.641172 7.534839 -0.855516 -12.493540 -0.859854 0.874788 -12.443802 0.092672 0.680436 0.000000 0.000000 0.000000 -19.799889 15.977818 -1.211049 -13.037740 -1.526008 2.684775 -12.872706 0.362518 2.288642 0.000000 0.000000 0.000000 0.000000 0.000000 0.000000 0.000000 0.000000 0.000000 0.099977 -9.195669 11.085731 -0.048437 -0.637722 6.125923 -2.875246 -9.055071 17.700645 -0.792546 0.729011 -19.068682 0.000000 0.000000 0.000000 0.000000 0.000000 0.000000 0.000000 0.000000 0.000000 -1.567335 -6.161263 7.073365 0.057339 0.353940 8.559828 3.834195 -0.573268 17.055031 0.377614 -0.470024 -20.550474 0.000000 0.000000 0.000000 0.000000 0.000000 0.000000 0.000000 0.000000 0.000000 
0.130516 88.874863 2.865810 -0.270587 -0.364402 -7.383717 1.294261 -0.165376 6.640131 -0.923706 0.114455 2.642172 0.758019 -1.546818 1.716783 -0.879316 -0.118875 3.066790 1.183598 2.277404 3.037667 0.268059 2.850746 -3.864551 -1.033314 -0.549894 -18.341019 0.000000 0.000000 0.000000 92.968987 -0.462350 9.574525 65.309715 -32.386353 3.837035 -0.091213 13.027024 23.099174 6.700079 13.041839 -6.755289 19.874977 30.092070 62.065769 -8.440528 -12.091969 -20.457886 -6.304468 -8.093905 -14.286646 0.000000 0.000000 0.000000 12.092133 -10.777091 -0.256345 9.073363 0.312249 1.393067 8.872604 -0.126477 1.316969 0.000000 0.000000 0.000000 10.936803 -5.369658 -1.060385 7.750942 0.410262 0.538727 8.131294 -0.061578 0.462782 0.000000 0.000000 0.000000 10.456663 2.549330 -0.789331 7.670747 -0.872667 -0.875278 7.669164 0.076632 -0.643074 0.000000 0.000000 0.000000 9.704910 11.021112 -1.668051 7.294672 -1.618938 -2.504016 6.897861 0.302989 -2.093541 0.000000 0.000000 0.000000 0.000000 0.000000 0.000000 0.000000 0.000000 0.000000 -89.853317 0.109725 6.102971 -71.860748 19.856915 -6.463939 -1.213794 -9.042394 40.459190 2.189713 -22.790257 -15.938592 -20.226753 -29.980049 61.631226 8.850058 12.907399 -21.619703 6.621306 8.633163 -15.120380 0.000000 0.000000 0.000000 -17.061626 -5.580976 -0.331238 -11.075241 0.270763 -1.468408 -11.165189 -0.187338 -1.358350 0.000000 0.000000 0.000000 -16.454037 -0.565511 -1.032276 -10.965590 0.397884 -0.617147 -10.881258 -0.075702 -0.500898 0.000000 0.000000 0.000000 -18.563206 7.520395 -0.817304 -12.496759 -0.858236 0.887720 -12.448653 0.094167 0.689230 0.000000 0.000000 0.000000 -19.736298 15.971298 -1.198775 -13.041547 -1.520451 2.719751 -12.857443 0.369745 2.323357 0.000000 0.000000 0.000000 0.000000 0.000000 0.000000 0.000000 0.000000 0.000000 0.087560 -9.164640 11.163391 -0.048072 -0.635349 6.075848 -2.860773 -9.054653 17.737492 -0.797744 0.724364 -19.072428 0.000000 0.000000 0.000000 0.000000 0.000000 0.000000 0.000000 0.000000 0.000000 -1.577573 -6.096268 7.037604 0.056634 0.350168 8.642950 3.865906 -0.540745 17.062750 0.369274 -0.468714 -20.556366 0.000000 0.000000 0.000000 0.000000 0.000000 0.000000 0.000000 0.000000 0.000000 
0.131216 88.869621 2.858571 -0.277569 -0.404841 -7.426286 1.284538 -0.155284 6.623013 -0.902479 0.112063 2.636938 0.751372 -1.532832 1.770234 -0.873084 -0.104248 3.090764 1.068056 2.313862 3.028274 0.271746 2.842879 -3.854905 -1.037977 -0.558210 -18.337418 0.000000 0.000000 0.000000 92.944382 -0.471142 9.577208 65.450966 -32.314541 3.776747 -0.091726 13.061213 23.124678 6.681630 12.898963 -6.683473 19.884192 30.090574 62.058090 -8.447973 -12.113549 -20.486567 -6.311296 -8.104470 -14.305558 0.000000 0.000000 0.000000 12.121767 -10.797734 -0.218637 9.134397 0.315849 1.384417 8.934797 -0.122717 1.307887 0.000000 0.000000 0.000000 10.968732 -5.380836 -1.021865 7.811770 0.411848 0.533210 8.196036 -0.059986 0.458364 0.000000 0.000000 0.000000 10.520947 2.545356 -0.733209 7.752911 -0.875353 -0.867539 7.738383 0.074421 -0.636582 0.000000 0.000000 0.000000 9.752540 11.023973 -1.578991 7.360181 -1.629761 -2.488695 6.965639 0.295559 -2.079978 0.000000 0.000000 0.000000 0.000000 0.000000 0.000000 0.000000 0.000000 0.000000 -89.821640 0.108187 6.093449 -71.944244 19.793325 -6.476305 -1.200719 -9.048686 40.509964 2.185113 -22.773701 -15.894929 -20.218243 -29.983299 61.641506 8.844222 12.880830 -21.592007 6.612248 8.616101 -15.101629 0.000000 0.000000 0.000000 -16.958605 -5.618744 -0.292005 -11.041041 0.272930 -1.463122 -11.123138 -0.184351 -1.355210 0.000000 0.000000 0.000000 -16.370035 -0.589000 -0.985147 -10.928297 0.398158 -0.614551 -10.852878 -0.075617 -0.499712 0.000000 0.000000 0.000000 -18.510492 7.507405 -0.758526 -12.476846 -0.860210 0.889436 -12.428162 0.092974 0.689948 0.000000 0.000000 0.000000 -19.722069 15.965966 -1.163212 -13.038412 -1.524869 2.724807 -12.836762 0.368595 2.332438 0.000000 0.000000 0.000000 0.000000 0.000000 0.000000 0.000000 0.000000 0.000000 0.093645 -9.128837 11.226755 -0.047555 -0.631904 6.043957 -2.850530 -9.034878 17.762056 -0.801232 0.719689 -19.066757 0.000000 0.000000 0.000000 0.000000 0.000000 0.000000 0.000000 0.000000 0.000000 -1.583428 -6.052105 7.021707 0.056074 0.347631 8.713276 3.881721 -0.491860 17.061249 0.366289 -0.466241 -20.554873 0.000000 0.000000 0.000000 0.000000 0.000000 0.000000 0.000000 0.000000 0.000000 
